<svg xmlns="http://www.w3.org/2000/svg" width="276" height="28" fill="none"><path fill="#000" d="M15.277 17.532V1.44H9.915v15.372c0 4.788-2.268 6.192-5.869 6.192-1.728 0-2.808-.144-3.995-.324v4.428c1.403.288 2.808.396 4.86.396 6.264 0 10.367-2.7 10.367-9.972zM27.145 27V1.44H21.78V27h5.364zm13.55 0h6.3l6.983-18.252c.289-.72.505-1.512.54-2.052h.18c.036.54.252 1.332.54 2.052L62.221 27h6.3l8.965-25.56h-5.508l-6.084 18.648c-.217.72-.505 1.44-.577 2.124h-.107c-.072-.684-.36-1.476-.648-2.124l-7.2-18.648h-5.509l-7.2 18.648c-.288.648-.575 1.44-.684 2.124h-.108c-.072-.684-.323-1.404-.54-2.124L37.237 1.44H31.73L40.695 27zm54.471.9c10.188 0 16.992-5.472 16.992-13.68 0-8.208-6.804-13.68-16.992-13.68S78.21 6.012 78.21 14.22c0 8.208 6.768 13.68 16.956 13.68zm0-4.176c-6.732 0-11.304-3.852-11.304-9.504 0-5.688 4.572-9.504 11.304-9.504 6.768 0 11.34 3.816 11.34 9.504s-4.572 9.504-11.34 9.504zm37.196 4.176c10.188 0 16.992-5.472 16.992-13.68 0-8.208-6.804-13.68-16.992-13.68s-16.956 5.472-16.956 13.68c0 8.208 6.768 13.68 16.956 13.68zm0-4.176c-6.732 0-11.304-3.852-11.304-9.504 0-5.688 4.572-9.504 11.304-9.504 6.768 0 11.34 3.816 11.34 9.504s-4.572 9.504-11.34 9.504zM168.909 27h4.752V8.568c0-1.332-.036-2.52-.18-3.312h.18c.252.792.612 1.944 1.08 3.024L183.849 27h5.076l9.288-18.72c.504-1.08 1.044-2.52 1.224-3.024h.18c-.144.864-.216 2.232-.216 3.312V27h4.932V1.44h-8.244l-8.712 17.856c-.324.828-.684 1.692-.828 2.376h-.108c-.144-.684-.468-1.512-.828-2.34L177.009 1.44h-8.1V27zm41.952-25.56v13.896c0 7.344 5.256 12.564 14.688 12.564s14.688-5.184 14.688-12.528V1.44h-5.4v13.536c0 4.824-3.42 8.604-9.288 8.604-5.94 0-9.288-3.78-9.288-8.604V1.44h-5.4zM246.745 27h4.896V10.224c0-1.044 0-2.124-.036-3.168h.144c.36.72 1.116 1.764 1.836 2.556L270.289 27h5.508V1.44h-4.86v19.62h-.108c-.396-.864-1.044-1.692-1.872-2.592L252.793 1.44h-6.048V27z"/></svg>