<?xml version="1.0" encoding="utf-8"?>
<!-- Generator: Adobe Illustrator 23.1.0, SVG Export Plug-In . SVG Version: 6.00 Build 0)  -->
<svg version="1.1" id="Layer_1" xmlns="http://www.w3.org/2000/svg" xmlns:xlink="http://www.w3.org/1999/xlink" x="0px" y="0px"
	 viewBox="0 0 59 11.3" style="enable-background:new 0 0 59 11.3;" xml:space="preserve">
<path d="M27.8,10.4h5.4v1h-5.4V10.4z M28.4,8.4V7.3h1.3c0.4,0,0.7-0.1,0.8-0.2c0.2-0.2,0.2-0.4,0.2-0.8V0h1.2v6.3
	c0,0.7-0.2,1.2-0.5,1.6c-0.3,0.4-0.9,0.5-1.6,0.5H28.4z"/>
<path d="M32.7,10.4h3.4v1h-3.4V10.4z M33.8,0h1.3v1.3h-1.3V0z M33.8,2.4h1.1v6h-1.1C33.8,8.4,33.8,2.4,33.8,2.4z"/>
<path d="M35.6,10.4h9.8v1h-9.8V10.4z M40.6,3.7l-1.3,4.7H38l-1.9-6h1.2l1.3,4.7l1.3-4.7h1.2l1.4,4.7l1.3-4.7H45l-1.9,6h-1.3
	L40.6,3.7z"/>
<path d="M44.9,10.4h7.3v1h-7.3C44.9,11.4,44.9,10.4,44.9,10.4z M47.4,8.3c-0.4-0.2-0.7-0.4-0.9-0.6c-0.2-0.2-0.5-0.6-0.6-1
	c-0.1-0.4-0.2-0.8-0.2-1.3s0.1-0.9,0.2-1.3c0.1-0.4,0.4-0.7,0.6-1c0.3-0.3,0.6-0.5,0.9-0.6c0.4-0.2,0.7-0.2,1.1-0.2
	c0.4,0,0.8,0.1,1.1,0.2c0.4,0.2,0.7,0.4,0.9,0.6c0.3,0.3,0.5,0.6,0.6,1c0.1,0.4,0.2,0.8,0.2,1.3s-0.1,0.9-0.2,1.3
	c-0.1,0.4-0.4,0.7-0.6,1c-0.3,0.3-0.6,0.5-0.9,0.6c-0.4,0.2-0.7,0.2-1.1,0.2C48.1,8.5,47.7,8.4,47.4,8.3z M49.8,7
	c0.3-0.4,0.5-0.9,0.5-1.6s-0.2-1.2-0.5-1.6c-0.3-0.4-0.7-0.6-1.2-0.6h-0.1c-0.5,0-0.9,0.2-1.2,0.6c-0.4,0.4-0.5,0.9-0.5,1.6
	S47,6.6,47.3,7c0.3,0.4,0.7,0.6,1.2,0.6h0.1C49.1,7.6,49.5,7.4,49.8,7z"/>
<path d="M51.7,10.4H59v1h-7.3C51.7,11.4,51.7,10.4,51.7,10.4z M54.2,8.3c-0.4-0.2-0.7-0.4-0.9-0.6c-0.2-0.2-0.5-0.6-0.6-1
	c-0.1-0.4-0.2-0.8-0.2-1.3s0.1-0.9,0.2-1.3c0.1-0.4,0.4-0.7,0.6-1c0.3-0.3,0.6-0.5,0.9-0.6c0.4-0.2,0.7-0.2,1.1-0.2
	c0.4,0,0.8,0.1,1.1,0.2c0.4,0.2,0.7,0.4,0.9,0.6c0.3,0.3,0.5,0.6,0.6,1c0.1,0.4,0.2,0.8,0.2,1.3S58,6.3,57.9,6.7
	c-0.1,0.4-0.4,0.7-0.6,1C57,8,56.7,8.2,56.4,8.3c-0.4,0.2-0.7,0.2-1.1,0.2C54.9,8.5,54.6,8.4,54.2,8.3z M56.6,7
	c0.3-0.4,0.5-0.9,0.5-1.6s-0.2-1.2-0.5-1.6c-0.3-0.4-0.7-0.6-1.2-0.6h-0.1c-0.5,0-0.9,0.2-1.2,0.6c-0.3,0.4-0.5,0.9-0.5,1.6
	s0.2,1.2,0.5,1.6c0.3,0.4,0.7,0.6,1.2,0.6h0.1C55.9,7.6,56.3,7.4,56.6,7z"/>
<path d="M11.2,10.4h7.3v1h-7.3V10.4z M17.4,8.4h-1.1V7.3c-0.1,0.3-0.3,0.6-0.7,0.9c-0.3,0.3-0.7,0.4-1.3,0.4c-0.7,0-1.2-0.2-1.5-0.6
	c-0.3-0.5-0.5-1-0.5-1.6v-4h1.2v3.7c0,0.5,0.1,0.8,0.3,1.1c0.2,0.2,0.5,0.4,0.9,0.4h0.1c0.2,0,0.4,0,0.6-0.1
	c0.1-0.2,0.3-0.3,0.4-0.5c0.1-0.2,0.3-0.4,0.3-0.6c0.1-0.2,0.1-0.5,0.1-0.8V2.4h1.1v6H17.4z"/>
<path d="M18.1,10.4h7.4v1h-7.4V10.4z M20.4,8.4h-1.1v-6h1.1v0.8c0.1-0.2,0.4-0.5,0.7-0.6s0.7-0.3,1.2-0.3c0.7,0,1.2,0.2,1.6,0.6
	c0.4,0.4,0.6,0.9,0.6,1.5v4h-1.1V4.6c0-0.4-0.1-0.7-0.3-1s-0.6-0.4-1-0.4H22c-0.2,0-0.4,0-0.6,0.1S21,3.5,20.9,3.6S20.6,4,20.5,4.3
	c-0.1,0.2-0.1,0.5-0.1,0.8C20.4,5.1,20.4,8.4,20.4,8.4z"/>
<rect x="0.1" y="10.4" width="11.6" height="1"/>
<polygon points="2.7,1.1 2.7,8.4 1.5,8.4 1.5,0 3.5,0 6,7.3 8.4,0 10.4,0 10.4,8.4 9.2,8.4 9.2,1 6.7,8.4 5.2,8.4 "/>
</svg>
