<svg xmlns="http://www.w3.org/2000/svg" width="59" height="11.3"><path d="M0 10.4h5.4v1H0v-1zm.6-2V7.3h1.3c.4 0 .7-.1.8-.2.2-.2.2-.4.2-.8V0h1.2v6.3c0 .7-.2 1.2-.5 1.6s-.9.5-1.6.5H.6z"/><path d="M4.9 10.4h3.4v1H4.9v-1zM6 0h1.3v1.3H6V0zm0 2.4h1.1v6H6v-6z"/><path d="M7.8 10.4h9.8v1H7.8v-1zm5-6.7l-1.3 4.7h-1.3l-1.9-6h1.2l1.3 4.7 1.3-4.7h1.2l1.4 4.7L16 2.4h1.2l-1.9 6H14l-1.2-4.7z"/><path d="M17.1 10.4h7.3v1h-7.3v-1zm2.5-2.1c-.4-.2-.7-.4-.9-.6s-.5-.6-.6-1-.2-.8-.2-1.3.1-.9.2-1.3.4-.7.6-1c.3-.3.6-.5.9-.6.4-.2.7-.2 1.1-.2s.8.1 1.1.2c.4.2.7.4.9.6.3.3.5.6.6 1s.2.8.2 1.3-.1.9-.2 1.3-.4.7-.6 1c-.3.3-.6.5-.9.6-.4.2-.7.2-1.1.2s-.8-.1-1.1-.2zM22 7c.3-.4.5-.9.5-1.6 0-.7-.2-1.2-.5-1.6-.3-.4-.7-.6-1.2-.6h-.1c-.5 0-.9.2-1.2.6-.4.4-.5.9-.5 1.6 0 .7.2 1.2.5 1.6.3.4.7.6 1.2.6h.1c.5 0 .9-.2 1.2-.6z"/><path d="M23.9 10.4h7.3v1h-7.3v-1zm2.5-2.1c-.4-.2-.7-.4-.9-.6s-.5-.6-.6-1-.2-.8-.2-1.3.1-.9.2-1.3.4-.7.6-1c.3-.3.6-.5.9-.6.4-.2.7-.2 1.1-.2.4 0 .8.1 1.1.2.4.2.7.4.9.6.3.3.5.6.6 1s.2.8.2 1.3-.1.9-.2 1.3-.4.7-.6 1c-.3.3-.6.5-.9.6-.4.2-.7.2-1.1.2-.4 0-.7-.1-1.1-.2zM28.8 7c.3-.4.5-.9.5-1.6 0-.7-.2-1.2-.5-1.6-.3-.4-.7-.6-1.2-.6h-.1c-.5 0-.9.2-1.2.6-.3.4-.5.9-.5 1.6 0 .7.2 1.2.5 1.6.3.4.7.6 1.2.6h.1c.5 0 .9-.2 1.2-.6zM33.6 10.4h11.6v1H33.6v-1zm2.6-9.3v7.3H35V0h2l2.5 7.3L41.9 0h2v8.4h-1.2V1l-2.5 7.4h-1.5l-2.5-7.3z"/><path d="M44.7 10.4H52v1h-7.3v-1zm6.2-2h-1.1V7.3c-.1.3-.3.6-.7.9-.3.3-.7.4-1.3.4-.7 0-1.2-.2-1.5-.6-.3-.5-.5-1-.5-1.6v-4H47v3.7c0 .5.1.8.3 1.1.2.2.5.4.9.4h.1c.2 0 .4 0 .6-.1.1-.2.3-.3.4-.5.1-.2.3-.4.3-.6.1-.2.1-.5.1-.8V2.4h1.1v6z"/><path d="M51.6 10.4H59v1h-7.4v-1zm2.3-2h-1.1v-6h1.1v.8c.1-.2.4-.5.7-.6s.7-.3 1.2-.3c.7 0 1.2.2 1.6.6.4.4.6.9.6 1.5v4h-1.1V4.6c0-.4-.1-.7-.3-1s-.6-.4-1-.4h-.1c-.2 0-.4 0-.6.1s-.4.2-.5.3-.3.4-.4.7c-.1.2-.1.5-.1.8v3.3z"/></svg>